<?xml version="1.0" encoding="utf-8"?>
<!-- Generator: Adobe Illustrator 27.1.1, SVG Export Plug-In . SVG Version: 6.00 Build 0)  -->
<!DOCTYPE svg PUBLIC "-//W3C//DTD SVG 1.1//EN" "http://www.w3.org/Graphics/SVG/1.1/DTD/svg11.dtd" [
	<!ENTITY ns_extend "http://ns.adobe.com/Extensibility/1.0/">
	<!ENTITY ns_ai "http://ns.adobe.com/AdobeIllustrator/10.0/">
	<!ENTITY ns_graphs "http://ns.adobe.com/Graphs/1.0/">
	<!ENTITY ns_vars "http://ns.adobe.com/Variables/1.0/">
	<!ENTITY ns_imrep "http://ns.adobe.com/ImageReplacement/1.0/">
	<!ENTITY ns_sfw "http://ns.adobe.com/SaveForWeb/1.0/">
	<!ENTITY ns_custom "http://ns.adobe.com/GenericCustomNamespace/1.0/">
	<!ENTITY ns_adobe_xpath "http://ns.adobe.com/XPath/1.0/">
]>
<svg version="1.1" id="Layer_1" xmlns:x="&ns_extend;" xmlns:i="&ns_ai;" xmlns:graph="&ns_graphs;"
	 xmlns="http://www.w3.org/2000/svg" xmlns:xlink="http://www.w3.org/1999/xlink" x="0px" y="0px" viewBox="0 0 142.6 72.9"
	 style="enable-background:new 0 0 142.6 72.9;" xml:space="preserve">
<style type="text/css">
	.st0{fill:none;}
	.st1{fill:#004987;}
	.st2{fill:#A17D23;}
</style>
<metadata>
	<sfw  xmlns="&ns_sfw;">
		<slices></slices>
		<sliceSourceBounds  bottomLeftOrigin="true" height="71.2" width="141.2" x="7.7" y="40"></sliceSourceBounds>
	</sfw>
</metadata>
<g>
	<rect x="0.7" y="0.9" class="st0" width="141.2" height="71.1"/>
	<g>
		<g>
			<path class="st1" d="M37.3,6.1c1.4,0,2.6-1.1,2.6-2.6c0-1.4-1.1-2.6-2.6-2.6c-1.4,0-2.6,1.1-2.6,2.6C34.7,4.9,35.9,6.1,37.3,6.1z
				"/>
			<path class="st1" d="M44.3,6.1c1.4,0,2.6-1.1,2.6-2.6c0-1.4-1.1-2.6-2.6-2.6c-1.4,0-2.6,1.1-2.6,2.6C41.8,4.9,42.9,6.1,44.3,6.1z
				"/>
			<path class="st1" d="M51.4,6.1C52.8,6.1,54,5,54,3.5c0-1.4-1.1-2.6-2.6-2.6c-1.4,0-2.6,1.1-2.6,2.6C48.8,4.9,50,6.1,51.4,6.1z"/>
			<path class="st1" d="M58.4,1c-1.4,0-2.6,1.1-2.6,2.6c0,1.4,1.1,2.6,2.6,2.6c1.4,0,2.6-1.1,2.6-2.6S59.8,1,58.4,1z"/>
			<path class="st1" d="M65.4,1c-1.4,0-2.6,1.1-2.6,2.6c0,1.4,1.1,2.6,2.6,2.6c1.4,0,2.6-1.1,2.6-2.6S66.8,1,65.4,1z"/>
			<path class="st1" d="M46.9,24.6c0-1.4-1.1-2.6-2.6-2.6c-1.4,0-2.6,1.1-2.6,2.6c0,1.4,1.1,2.6,2.6,2.6
				C45.7,27.2,46.9,26.1,46.9,24.6z"/>
			<path class="st1" d="M51.4,27.2c1.4,0,2.6-1.1,2.6-2.6c0-1.4-1.1-2.6-2.6-2.6c-1.4,0-2.6,1.1-2.6,2.6S50,27.2,51.4,27.2z"/>
			<path class="st1" d="M37.3,13.1c1.4,0,2.6-1.1,2.6-2.6c0-1.4-1.1-2.6-2.6-2.6c-1.4,0-2.6,1.1-2.6,2.6S35.9,13.1,37.3,13.1z"/>
			<circle class="st1" cx="37.3" cy="17.6" r="2.6"/>
			<path class="st1" d="M37.3,27.2c1.4,0,2.6-1.1,2.6-2.6c0-1.4-1.1-2.6-2.6-2.6c-1.4,0-2.6,1.1-2.6,2.6S35.9,27.2,37.3,27.2z"/>
			<path class="st1" d="M37.3,34.2c1.4,0,2.6-1.1,2.6-2.6c0-1.4-1.1-2.6-2.6-2.6c-1.4,0-2.6,1.1-2.6,2.6S35.9,34.2,37.3,34.2z"/>
			<path class="st1" d="M37.3,41.3c1.4,0,2.6-1.1,2.6-2.6c0-1.4-1.1-2.6-2.6-2.6c-1.4,0-2.6,1.1-2.6,2.6
				C34.7,40.1,35.9,41.3,37.3,41.3z"/>
			<path class="st1" d="M39.8,45.8c0-1.4-1.1-2.6-2.6-2.6c-1.4,0-2.6,1.1-2.6,2.6c0,1.4,1.1,2.6,2.6,2.6
				C38.7,48.3,39.8,47.2,39.8,45.8z"/>
			<path class="st1" d="M7.1,62.5H1.8c-0.6,0-1,0.5-1,1V71c0,0.6,0.5,1,1,1s1-0.5,1-1v-2.7h3.6c0.5,0,0.9-0.4,0.9-0.9
				s-0.4-0.9-0.9-0.9H2.8v-2h4.3c0.5,0,0.9-0.4,0.9-0.9C8,62.9,7.6,62.5,7.1,62.5z"/>
			<path class="st1" d="M12.1,62.4c-0.6,0-1,0.5-1,1v7.5c0,0.6,0.5,1,1,1c0.6,0,1-0.5,1-1v-7.4C13.1,62.9,12.6,62.4,12.1,62.4z"/>
			<path class="st1" d="M23.2,70.1h-4.3v-2h3.6c0.5,0,0.9-0.4,0.9-0.9s-0.4-0.9-0.9-0.9h-3.6v-1.9h4.2c0.5,0,0.9-0.4,0.9-0.9
				s-0.4-0.9-0.9-0.9h-5.2c-0.6,0-1,0.5-1,1V71c0,0.6,0.5,1,1,1h5.3c0.5,0,0.9-0.4,0.9-0.9C24.1,70.5,23.7,70.1,23.2,70.1z"/>
			<path class="st1" d="M31.1,66.3c-1.6-0.4-2-0.6-2-1.2l0,0c0-0.5,0.4-0.8,1.2-0.8c0.6,0,1.3,0.2,2,0.6c0.2,0.1,0.3,0.1,0.5,0.1
				c0.5,0,1-0.4,1-1c0-0.4-0.2-0.7-0.5-0.8c-0.9-0.5-1.9-0.8-3-0.8c-1.9,0-3.3,1.1-3.3,2.8l0,0c0,1.9,1.2,2.4,3.1,2.9
				c1.6,0.4,1.9,0.7,1.9,1.2l0,0c0,0.6-0.5,0.9-1.4,0.9s-1.7-0.3-2.4-0.9c-0.1-0.1-0.3-0.2-0.6-0.2c-0.5,0-1,0.4-1,1
				c0,0.3,0.2,0.6,0.4,0.8c1.1,0.8,2.3,1.1,3.6,1.1c2,0,3.5-1.1,3.5-2.9l0,0C34.1,67.5,33,66.8,31.1,66.3z"/>
			<path class="st1" d="M43.3,62.5h-6.1c-0.5,0-1,0.4-1,1c0,0.5,0.4,1,1,1h2v6.6c0,0.6,0.5,1,1,1c0.6,0,1-0.5,1-1v-6.6h2
				c0.5,0,1-0.4,1-1S43.8,62.5,43.3,62.5z"/>
			<path class="st1" d="M51.4,63.2c-0.2-0.5-0.6-0.8-1.2-0.8h-0.1c-0.6,0-1,0.3-1.2,0.8l-3.3,7.4c-0.1,0.1-0.1,0.3-0.1,0.4
				c0,0.5,0.4,1,1,1c0.4,0,0.8-0.2,1-0.6l0.7-1.6h4.2l0.6,1.5c0.2,0.4,0.5,0.7,1,0.7c0.6,0,1-0.4,1-1c0-0.1,0-0.3-0.1-0.4L51.4,63.2
				z M48.8,68l1.3-3.1l1.3,3.1H48.8z"/>
		</g>
		<g>
			<path class="st2" d="M139.5,59.1c-1.3,0-2.3,1.1-2.3,2.4l0,0c0,1.3,1,2.3,2.3,2.3s2.3-1.1,2.3-2.4l0,0
				C141.9,60.2,140.8,59.1,139.5,59.1z M141.6,61.5c0,1.1-0.9,2.1-2.1,2.1c-1.2,0-2.1-0.9-2.1-2.1l0,0c0-1.1,0.9-2.1,2.1-2.1
				C140.7,59.4,141.6,60.3,141.6,61.5L141.6,61.5z"/>
			<path class="st2" d="M140.7,61.1c0-0.6-0.4-0.8-1-0.8h-0.8c-0.2,0-0.3,0.2-0.3,0.3v1.8c0,0.2,0.2,0.3,0.3,0.3
				c0.2,0,0.4-0.2,0.4-0.3V62h0.3l0.5,0.7c0.1,0.1,0.1,0.1,0.3,0.1s0.4-0.1,0.4-0.3c0-0.1,0-0.2-0.1-0.2l-0.3-0.4
				C140.6,61.7,140.7,61.4,140.7,61.1z M139.6,61.4h-0.4v-0.6h0.4c0.2,0,0.4,0.1,0.4,0.3C140,61.3,139.9,61.4,139.6,61.4z"/>
			<path class="st2" d="M62.1,62.5h-3.3c-0.6,0-1,0.5-1,1V71c0,0.6,0.5,1,1,1c0.6,0,1-0.5,1-1v-2.1h1.7l2,2.6c0.2,0.3,0.6,0.5,1,0.5
				c0.5,0,1-0.4,1-1c0-0.3-0.1-0.5-0.3-0.8l-1.4-1.8c1.1-0.5,1.9-1.4,1.9-2.9l0,0c0-0.9-0.3-1.6-0.8-2.2
				C64.3,62.8,63.3,62.5,62.1,62.5z M63.6,65.8c0,0.8-0.6,1.3-1.6,1.3h-2.1v-2.7H62C63,64.4,63.6,64.8,63.6,65.8L63.6,65.8z"/>
			<path class="st2" d="M75.3,70.1H71v-2h3.6c0.5,0,0.9-0.4,0.9-0.9s-0.4-0.9-0.9-0.9H71v-1.9h4.2c0.5,0,0.9-0.4,0.9-0.9
				s-0.4-0.9-0.9-0.9H70c-0.6,0-1,0.5-1,1V71c0,0.6,0.5,1,1,1h5.3c0.5,0,0.9-0.4,0.9-0.9C76.2,70.5,75.8,70.1,75.3,70.1z"/>
			<path class="st2" d="M91.5,62.4c-0.5,0-0.9,0.3-1,0.7l-1.9,5.8l-1.9-5.7c-0.2-0.5-0.5-0.8-1.1-0.8h-0.2c-0.5,0-0.9,0.3-1.1,0.8
				l-1.9,5.7l-1.9-5.8c-0.1-0.4-0.5-0.7-1-0.7c-0.6,0-1.1,0.4-1.1,1c0,0.1,0,0.3,0.1,0.4l2.6,7.4c0.2,0.5,0.6,0.9,1.1,0.9h0.2
				c0.5,0,0.9-0.3,1.1-0.9l1.9-5.4l1.9,5.4c0.2,0.5,0.6,0.9,1.1,0.9h0.2c0.5,0,0.9-0.3,1.1-0.9l2.6-7.4c0-0.1,0.1-0.3,0.1-0.4
				C92.5,62.8,92.1,62.4,91.5,62.4z"/>
			<path class="st2" d="M100,63.2c-0.2-0.5-0.6-0.8-1.2-0.8h-0.1c-0.6,0-1,0.3-1.2,0.8l-3.3,7.4c-0.1,0.1-0.1,0.3-0.1,0.4
				c0,0.5,0.4,1,1,1c0.4,0,0.8-0.2,1-0.6l0.7-1.6h4.2l0.6,1.5c0.2,0.4,0.5,0.7,1,0.7c0.6,0,1-0.4,1-1c0-0.1,0-0.3-0.1-0.4L100,63.2z
				 M97.4,68l1.3-3.1L100,68H97.4z"/>
			<path class="st2" d="M110.7,62.5h-3.3c-0.6,0-1,0.5-1,1V71c0,0.6,0.5,1,1,1c0.6,0,1-0.5,1-1v-2.1h1.7l2,2.6
				c0.2,0.3,0.6,0.5,1,0.5c0.5,0,1-0.4,1-1c0-0.3-0.1-0.5-0.3-0.8l-1.4-1.8c1.1-0.5,1.9-1.4,1.9-2.9l0,0c0-0.9-0.3-1.6-0.8-2.2
				C112.8,62.8,111.9,62.5,110.7,62.5z M112.2,65.8c0,0.8-0.6,1.3-1.6,1.3h-2.1v-2.7h2.1C111.5,64.4,112.2,64.8,112.2,65.8
				L112.2,65.8z"/>
			<path class="st2" d="M121.2,62.5h-2.6c-0.6,0-1,0.5-1,1v7.4c0,0.6,0.5,1,1,1h2.6c3,0,5-2.1,5-4.7l0,0
				C126.2,64.5,124.2,62.5,121.2,62.5z M124,67.2c0,1.7-1.1,2.8-2.8,2.8h-1.6v-5.7h1.6C122.9,64.4,124,65.5,124,67.2L124,67.2z"/>
			<path class="st2" d="M133.1,66.3c-1.6-0.4-2-0.6-2-1.2l0,0c0-0.5,0.4-0.8,1.2-0.8c0.6,0,1.3,0.2,2,0.6c0.2,0.1,0.3,0.1,0.5,0.1
				c0.5,0,1-0.4,1-1c0-0.4-0.2-0.7-0.5-0.8c-0.9-0.5-1.9-0.8-3-0.8c-1.9,0-3.3,1.1-3.3,2.8l0,0c0,1.9,1.2,2.4,3.1,2.9
				c1.6,0.4,1.9,0.7,1.9,1.2l0,0c0,0.6-0.5,0.9-1.4,0.9s-1.7-0.3-2.4-0.9c-0.1-0.1-0.3-0.2-0.6-0.2c-0.5,0-1,0.4-1,1
				c0,0.3,0.2,0.6,0.4,0.8c1.1,0.8,2.3,1.1,3.6,1.1c2,0,3.5-1.1,3.5-2.9l0,0C136.1,67.5,135,66.8,133.1,66.3z"/>
			<path class="st2" d="M105.3,13.1c1.4,0,2.6-1.1,2.6-2.6c0-1.4-1.1-2.6-2.6-2.6c-1.4,0-2.6,1.1-2.6,2.6S103.9,13.1,105.3,13.1z"/>
			<path class="st2" d="M98.3,27.2c1.4,0,2.6-1.1,2.6-2.6c0-1.4-1.1-2.6-2.6-2.6c-1.4,0-2.6,1.1-2.6,2.6S96.9,27.2,98.3,27.2z"/>
			<path class="st2" d="M98.3,6.1c1.4,0,2.6-1.1,2.6-2.6c0-1.4-1.1-2.6-2.6-2.6c-1.4,0-2.6,1.1-2.6,2.6C95.7,4.9,96.9,6.1,98.3,6.1z
				"/>
			<path class="st2" d="M77.2,13.1c1.4,0,2.6-1.1,2.6-2.6c0-1.4-1.1-2.6-2.6-2.6c-1.4,0-2.6,1.1-2.6,2.6S75.7,13.1,77.2,13.1z"/>
			<path class="st2" d="M91.2,1c-1.4,0-2.6,1.1-2.6,2.6c0,1.4,1.1,2.6,2.6,2.6c1.4,0,2.6-1.1,2.6-2.6S92.6,1,91.2,1z"/>
			<path class="st2" d="M91.2,22.1c-1.4,0-2.6,1.1-2.6,2.6c0,1.4,1.1,2.6,2.6,2.6c1.4,0,2.6-1.1,2.6-2.6
				C93.8,23.2,92.6,22.1,91.2,22.1z"/>
			<path class="st2" d="M98.3,34.2c1.4,0,2.6-1.1,2.6-2.6c0-1.4-1.1-2.6-2.6-2.6c-1.4,0-2.6,1.1-2.6,2.6S96.9,34.2,98.3,34.2z"/>
			<path class="st2" d="M107.9,45.8c0-1.4-1.1-2.6-2.6-2.6c-1.4,0-2.6,1.1-2.6,2.6c0,1.4,1.1,2.6,2.6,2.6
				C106.7,48.3,107.9,47.2,107.9,45.8z"/>
			<path class="st2" d="M99.2,38.7c0,1.4,1.1,2.6,2.6,2.6c1.4,0,2.6-1.1,2.6-2.6c0-1.4-1.1-2.6-2.6-2.6
				C100.4,36.2,99.2,37.3,99.2,38.7z"/>
			<circle class="st2" cx="105.3" cy="17.6" r="2.6"/>
			<path class="st2" d="M84.2,6.1c1.4,0,2.6-1.1,2.6-2.6c0-1.4-1.1-2.6-2.6-2.6c-1.4,0-2.6,1.1-2.6,2.6C81.6,4.9,82.8,6.1,84.2,6.1z
				"/>
			<path class="st2" d="M77.2,41.3c1.4,0,2.6-1.1,2.6-2.6c0-1.4-1.1-2.6-2.6-2.6c-1.4,0-2.6,1.1-2.6,2.6
				C74.6,40.1,75.7,41.3,77.2,41.3z"/>
			<path class="st2" d="M77.2,34.2c1.4,0,2.6-1.1,2.6-2.6c0-1.4-1.1-2.6-2.6-2.6c-1.4,0-2.6,1.1-2.6,2.6S75.7,34.2,77.2,34.2z"/>
			<path class="st2" d="M79.7,45.8c0-1.4-1.1-2.6-2.6-2.6c-1.4,0-2.6,1.1-2.6,2.6c0,1.4,1.1,2.6,2.6,2.6
				C78.6,48.3,79.7,47.2,79.7,45.8z"/>
			<path class="st2" d="M77.2,27.2c1.4,0,2.6-1.1,2.6-2.6c0-1.4-1.1-2.6-2.6-2.6c-1.4,0-2.6,1.1-2.6,2.6S75.7,27.2,77.2,27.2z"/>
			<path class="st2" d="M77.2,6.1c1.4,0,2.6-1.1,2.6-2.6c0-1.4-1.1-2.6-2.6-2.6c-1.4,0-2.6,1.1-2.6,2.6C74.6,4.9,75.7,6.1,77.2,6.1z
				"/>
			<circle class="st2" cx="77.2" cy="17.6" r="2.6"/>
			<path class="st2" d="M84.2,27.2c1.4,0,2.6-1.1,2.6-2.6c0-1.4-1.1-2.6-2.6-2.6c-1.4,0-2.6,1.1-2.6,2.6S82.8,27.2,84.2,27.2z"/>
		</g>
	</g>
</g>
</svg>
